<svg class="round" xmlns="http://www.w3.org/2000/svg" viewBox="0 0 61.23 52.14"><defs><style>.cls-1{fill:#db336b;}</style></defs><title>star</title><g id="Laag_2" data-name="Laag 2"><g id="small-fish"><path class="cls-1" d="M24.18,17c4.74-1.1,1-16,7-17,1.17-.19,2.36,1.9,3,3,3.5,6.06.25,11.79,3,14,1.26,1,2.73.45,6,0,7.27-1,17.23-.51,18,2,.62,2-4.54,6.35-10,8-5.16,1.56-9.47.41-10,2-.29.88.88,1.68,3,4,2.77,3,6.82,7.59,7,13,0,1.38.11,3.32-1,4-2.26,1.39-8.31-3.13-12-7-3.22-3.36-4.63-6.2-7-6-1.13.1-1.92.84-3,2-5.46,5.85-6.17,9.05-9,11-3.59,2.48-8.77,2.77-10,1-.69-1,0-2.54,1-5,1.44-3.36,2.82-4.47,5-8,2.3-3.72,3.45-5.58,3-7-1-3-7-4.74-11-5-2.07-.13-3.56.12-5-1s-2.66-3.36-2-5c1.2-3,8.4-3,16-3h5C24.14,17,24.11,17,24.18,17Z"/></g></g></svg>